# xmcd CD database file
#
# Track frame offsets:
#	150
#	11590
#	29167
#	43235
#	56720
#	73710
#	89582
#	109145
#	126827
#	145282
#	157834
#	174222
#
# Disc length: 2609 seconds
#
# Revision: 0
# Processed by: cddbd v1.4PL0 Copyright (c) Steve Scherf et al.
# Submitted via: CDex 1.50Beta7
#
DISCID=a90a2f0c
DTITLE=Phil Pritchett - Tougher Than The Rest
DYEAR=2002
DGENRE=Country
TTITLE0=Doesn't Make A Difference
TTITLE1=Tougher Than The Rest
TTITLE2=God Save The King
TTITLE3=No Laughing Matter
TTITLE4=Julianne Doesn't Live Here Anymore
TTITLE5=Willin' (w/Cody Canada)
TTITLE6=dreams
TTITLE7=Mexican Restaurant
TTITLE8=Her Brother Taught Her How To Fight
TTITLE9=Woman To Me
TTITLE10=Shelley
TTITLE11=Marry Me Mary
EXTD=YEAR: 2002
EXTT0=
EXTT1=
EXTT2=
EXTT3=
EXTT4=
EXTT5=
EXTT6=
EXTT7=
EXTT8=
EXTT9=
EXTT10=
EXTT11=
PLAYORDER=
